<svg xmlns="http://www.w3.org/2000/svg" width="60" height="60" viewBox="0 0 60 60">
  <path id="Icon_material-android" data-name="Icon material-android" d="M15,45a2.793,2.793,0,0,0,3,2.5h3v8.75C21,58.325,23.01,60,25.5,60S30,58.325,30,56.25V47.5h6v8.75C36,58.325,38.01,60,40.5,60S45,58.325,45,56.25V47.5h3A2.793,2.793,0,0,0,51,45V20H15ZM7.5,20C5.01,20,3,21.675,3,23.75v17.5C3,43.325,5.01,45,7.5,45S12,43.325,12,41.25V23.75C12,21.675,9.99,20,7.5,20Zm51,0c-2.49,0-4.5,1.675-4.5,3.75v17.5C54,43.325,56.01,45,58.5,45S63,43.325,63,41.25V23.75C63,21.675,60.99,20,58.5,20ZM43.59,5.4l3.9-3.25a1.1,1.1,0,0,0,0-1.775,1.7,1.7,0,0,0-2.13,0l-4.44,3.7A20.419,20.419,0,0,0,33,2.5a20.722,20.722,0,0,0-7.98,1.575L20.55.375a1.7,1.7,0,0,0-2.13,0,1.1,1.1,0,0,0,0,1.775l3.93,3.275C17.91,8.15,15,12.525,15,17.5H51C51,12.525,48.09,8.125,43.59,5.4ZM27,12.5H24V10h3Zm15,0H39V10h3Z" transform="translate(-3)"/>
</svg>
