<svg xmlns="http://www.w3.org/2000/svg" width="60" height="60" viewBox="0 0 60 60">
  <path id="Icon_awesome-app-store-ios" data-name="Icon awesome-app-store-ios" d="M53.571,2.25H6.429A6.43,6.43,0,0,0,0,8.679V55.821A6.43,6.43,0,0,0,6.429,62.25H53.571A6.43,6.43,0,0,0,60,55.821V8.679A6.43,6.43,0,0,0,53.571,2.25ZM17.009,49.46a2.676,2.676,0,0,1-4.634-2.679l1.915-3.308A4.6,4.6,0,0,1,19.594,45Zm18.6-7.219H11.25a2.679,2.679,0,1,1,0-5.357h6.83l8.759-15.161-2.746-4.741A2.676,2.676,0,0,1,28.728,14.3l1.192,2.062L31.112,14.3a2.676,2.676,0,1,1,4.634,2.679l-11.491,19.9h8.317c2.705,0,4.219,3.174,3.04,5.357Zm13.138,0H44.866l2.625,4.54a2.676,2.676,0,0,1-4.634,2.679Q36.248,38.029,32.946,32.3c-2.237-3.884-.643-7.768.951-9.08q2.632,4.56,7.888,13.661H48.75a2.679,2.679,0,1,1,0,5.357Z" transform="translate(0 -2.25)"/>
</svg>
