<svg xmlns="http://www.w3.org/2000/svg" width="60" height="50" viewBox="0 0 60 50">
  <path id="Icon_awesome-credit-card" data-name="Icon awesome-credit-card" d="M0,46.893A5.189,5.189,0,0,0,5,52.25H55a5.189,5.189,0,0,0,5-5.357V27.25H0ZM20,39.3a1.3,1.3,0,0,1,1.25-1.339H35.417a1.3,1.3,0,0,1,1.25,1.339v4.464a1.3,1.3,0,0,1-1.25,1.339H21.25A1.3,1.3,0,0,1,20,43.768Zm-13.333,0a1.3,1.3,0,0,1,1.25-1.339h7.5a1.3,1.3,0,0,1,1.25,1.339v4.464a1.3,1.3,0,0,1-1.25,1.339h-7.5a1.3,1.3,0,0,1-1.25-1.339ZM60,7.607v5.357H0V7.607A5.189,5.189,0,0,1,5,2.25H55A5.189,5.189,0,0,1,60,7.607Z" transform="translate(0 -2.25)"/>
</svg>
