<svg xmlns="http://www.w3.org/2000/svg" width="75" height="70" viewBox="0 0 75 70">
  <path id="Icon_awesome-edit" data-name="Icon awesome-edit" d="M52.422,11.371,64.167,23.705a1.385,1.385,0,0,1,0,1.887L35.729,55.457,23.646,56.866a2.6,2.6,0,0,1-2.8-2.94l1.341-12.69L50.625,11.371A1.23,1.23,0,0,1,52.422,11.371ZM73.516,8.239,67.161,1.566a4.922,4.922,0,0,0-7.188,0L55.365,6.407a1.385,1.385,0,0,0,0,1.887L67.109,20.628a1.23,1.23,0,0,0,1.8,0l4.609-4.841a5.54,5.54,0,0,0,0-7.548ZM50,47.335V61.255H8.333V17.5H38.255a1.563,1.563,0,0,0,1.107-.479l5.208-5.47a1.652,1.652,0,0,0-1.107-2.8H6.25A6.414,6.414,0,0,0,0,15.309V63.443a6.414,6.414,0,0,0,6.25,6.564H52.083a6.414,6.414,0,0,0,6.25-6.564V41.865A1.557,1.557,0,0,0,55.664,40.7l-5.208,5.47A1.726,1.726,0,0,0,50,47.335Z" transform="translate(0 -0.007)" fill="#27363b"/>
</svg>
