<svg xmlns="http://www.w3.org/2000/svg" width="50" height="45" viewBox="0 0 50 45">
  <path id="Icon_awesome-edit" data-name="Icon awesome-edit" d="M34.948,7.312l7.83,7.929a.867.867,0,0,1,0,1.213l-18.958,19.2-8.056.905a1.7,1.7,0,0,1-1.866-1.89l.894-8.158L33.75,7.312A.841.841,0,0,1,34.948,7.312ZM49.01,5.3l-4.236-4.29a3.365,3.365,0,0,0-4.792,0L36.91,4.121a.867.867,0,0,0,0,1.213l7.83,7.929a.841.841,0,0,0,1.2,0l3.073-3.112a3.469,3.469,0,0,0,0-4.853ZM33.333,30.432v8.949H5.556V11.25H25.5a1.06,1.06,0,0,0,.738-.308l3.472-3.516a1.057,1.057,0,0,0-.738-1.8H4.167A4.194,4.194,0,0,0,0,9.844V40.787a4.194,4.194,0,0,0,4.167,4.22H34.722a4.194,4.194,0,0,0,4.167-4.22V26.916a1.042,1.042,0,0,0-1.78-.747l-3.472,3.516A1.088,1.088,0,0,0,33.333,30.432Z" transform="translate(0 -0.007)" fill="#fff"/>
</svg>
