<svg xmlns="http://www.w3.org/2000/svg" width="50" height="38" viewBox="0 0 50 38">
  <path id="Icon_awesome-folder-open" data-name="Icon awesome-folder-open" d="M49.713,27.072,43.426,39.358a5.467,5.467,0,0,1-4.8,3.142H3.908c-1.608,0-2.61-1.988-1.8-3.572L8.4,26.642a5.467,5.467,0,0,1,4.8-3.142H47.914c1.608,0,2.61,1.988,1.8,3.572ZM13.194,20.333H41.667v-4.75a4.487,4.487,0,0,0-4.167-4.75H23.611L18.056,4.5H4.167A4.487,4.487,0,0,0,0,9.25V36.765L6,25.047A8.229,8.229,0,0,1,13.194,20.333Z" transform="translate(0 -4.5)" fill="#fff"/>
</svg>
