<svg xmlns="http://www.w3.org/2000/svg" width="37" height="37" viewBox="0 0 37 37">
  <path id="Icon_awesome-google" data-name="Icon awesome-google" d="M36,18.983c0,10.27-7.148,17.579-17.7,17.579a18.128,18.128,0,0,1-18.3-18,18.128,18.128,0,0,1,18.3-18,17.751,17.751,0,0,1,12.268,4.71l-4.98,4.71C19.07,3.8,6.957,8.445,6.957,18.563A11.365,11.365,0,0,0,18.3,29.929c7.244,0,9.959-5.11,10.387-7.759H18.3V15.979H35.712A15.533,15.533,0,0,1,36,18.983Z" transform="translate(0.5 -0.063)" fill="#fff" stroke="#fff" stroke-width="1"/>
</svg>
