<svg xmlns="http://www.w3.org/2000/svg" width="60" height="60" viewBox="0 0 60 60">
  <path id="Icon_awesome-headset" data-name="Icon awesome-headset" d="M22.5,24.375a3.75,3.75,0,0,0-3.75-3.75H16.875a7.5,7.5,0,0,0-7.5,7.5V33.75a7.5,7.5,0,0,0,7.5,7.5H18.75A3.75,3.75,0,0,0,22.5,37.5ZM43.125,41.25a7.5,7.5,0,0,0,7.5-7.5V28.125a7.5,7.5,0,0,0-7.5-7.5H41.25a3.75,3.75,0,0,0-3.75,3.75V37.5a3.75,3.75,0,0,0,3.75,3.75ZM30,0C13.263,0,.537,13.925,0,30v1.875A1.874,1.874,0,0,0,1.875,33.75H3.75a1.874,1.874,0,0,0,1.875-1.875V30a24.375,24.375,0,0,1,48.75,0h-.014c.009.285.014,19.42.014,19.42a4.955,4.955,0,0,1-4.955,4.955H37.5a5.625,5.625,0,0,0-5.625-5.625h-3.75a5.625,5.625,0,0,0,0,11.25h21.3A10.58,10.58,0,0,0,60,49.42V30C59.463,13.925,46.737,0,30,0Z"/>
</svg>
