<svg xmlns="http://www.w3.org/2000/svg" width="37.002" height="28.111" viewBox="0 0 37.002 28.111">
  <path id="Icon_awesome-home" data-name="Icon awesome-home" d="M17.522,9.258,6,18.411v9.878a.983.983,0,0,0,1,.964l7-.017A.982.982,0,0,0,15,28.272V22.5a.983.983,0,0,1,1-.964h4a.983.983,0,0,1,1,.964v5.765a.947.947,0,0,0,.292.684,1.019,1.019,0,0,0,.708.284l7,.019a.983.983,0,0,0,1-.964V18.4L18.478,9.258A.784.784,0,0,0,17.522,9.258Zm18.2,6.221L30.5,11.325V2.977a.737.737,0,0,0-.75-.723h-3.5a.737.737,0,0,0-.75.723V7.353l-5.6-4.44a3.086,3.086,0,0,0-3.812,0L.271,15.479a.706.706,0,0,0-.1,1.019l1.594,1.869a.758.758,0,0,0,.507.261.769.769,0,0,0,.55-.162l14.7-11.678a.784.784,0,0,1,.956,0l14.7,11.678a.769.769,0,0,0,1.056-.1L35.828,16.5A.706.706,0,0,0,36,15.968a.716.716,0,0,0-.273-.489Z" transform="translate(0.502 -1.642)" fill="#fff" stroke="#fff" stroke-width="1"/>
</svg>
