<svg xmlns="http://www.w3.org/2000/svg" width="37" height="34" viewBox="0 0 37 34">
  <path id="Icon_awesome-magnet" data-name="Icon awesome-magnet" d="M11.536,10.36H.844A.841.841,0,0,1,0,9.522V3.93A2.524,2.524,0,0,1,2.531,1.413H9.844A2.524,2.524,0,0,1,12.375,3.93V9.522a.829.829,0,0,1-.243.594.839.839,0,0,1-.6.245ZM36,9.522v-5.6a2.524,2.524,0,0,0-2.531-2.516H26.156a2.524,2.524,0,0,0-2.531,2.516V9.515a.841.841,0,0,0,.844.839H35.156a.839.839,0,0,0,.6-.241A.829.829,0,0,0,36,9.522ZM24.469,12.6a.841.841,0,0,0-.844.839v3.635c0,8.954-11.25,8.94-11.25,0V13.436a.841.841,0,0,0-.844-.839H.851a.846.846,0,0,0-.6.248.836.836,0,0,0-.245.6c.007,1.5.042,2.817,0,3.726C.007,27.7,9.581,34.406,18.06,34.406s17.93-6.71,17.93-17.244c-.042-.895-.014-2.307,0-3.719a.836.836,0,0,0-.245-.6.846.846,0,0,0-.6-.248Z" transform="translate(0.5 -0.906)" fill="#fff" stroke="#fff" stroke-width="1"/>
</svg>
