<svg xmlns="http://www.w3.org/2000/svg" width="36" height="27" viewBox="0 0 36 27">
  <g id="Icon_ionic-logo-designernews" data-name="Icon ionic-logo-designernews" transform="translate(-2.25 -6.75)" opacity="0.7">
    <path id="Path_28" data-name="Path 28" d="M20.419,10.2,15.961,6.75l4.472,7.186Z" transform="translate(2.283)" fill="#fff"/>
    <path id="Path_29" data-name="Path 29" d="M26.116,6.75V20.5H23.191l-5.079-8.319.137,8.319H15.027V11.475L12.029,9c.08.1.161.2.233.312a7.313,7.313,0,0,1,1.205,4.261c0,4.151-2.459,6.927-6.179,6.927H2.25v.034L18.289,33.75H38.25V16.715Z" transform="translate(0 0)" fill="#fff"/>
    <path id="Path_30" data-name="Path 30" d="M9.134,12.523c0-2.039-1-3.171-2.791-3.171H4.992v6.258H6.328C8.156,15.609,9.134,14.527,9.134,12.523Z" fill="#fff"/>
  </g>
</svg>
