<svg xmlns="http://www.w3.org/2000/svg" width="60" height="50" viewBox="0 0 60 50">
  <path id="Icon_awesome-photo-video" data-name="Icon awesome-photo-video" d="M57,0H15a3.064,3.064,0,0,0-3,3.125V12.5H27V6.25H45V37.5H57a3.064,3.064,0,0,0,3-3.125V3.125A3.064,3.064,0,0,0,57,0ZM21.75,10.059a.862.862,0,0,1-.844.879H18.094a.862.862,0,0,1-.844-.879V7.129a.862.862,0,0,1,.844-.879h2.813a.862.862,0,0,1,.844.879Zm33,20.313a.862.862,0,0,1-.844.879H51.094a.862.862,0,0,1-.844-.879v-2.93a.862.862,0,0,1,.844-.879h2.813a.862.862,0,0,1,.844.879Zm0-10.156a.862.862,0,0,1-.844.879H51.094a.862.862,0,0,1-.844-.879v-2.93a.862.862,0,0,1,.844-.879h2.813a.862.862,0,0,1,.844.879Zm0-10.156a.862.862,0,0,1-.844.879H51.094a.862.862,0,0,1-.844-.879V7.129a.862.862,0,0,1,.844-.879h2.813a.862.862,0,0,1,.844.879ZM39,15.625H3A3.064,3.064,0,0,0,0,18.75V46.875A3.064,3.064,0,0,0,3,50H39a3.064,3.064,0,0,0,3-3.125V18.75A3.064,3.064,0,0,0,39,15.625ZM9,21.875a3.128,3.128,0,0,1,0,6.25,3.128,3.128,0,0,1,0-6.25ZM36,43.75H6V40.625l6-6.25L15,37.5,27,25l9,9.375Z"/>
</svg>
