<svg xmlns="http://www.w3.org/2000/svg" width="31.089" height="41" viewBox="0 0 31.089 41">
  <path id="Icon_material-directions-run" data-name="Icon material-directions-run" d="M24.087,9.662A3.721,3.721,0,1,0,20.36,5.941,3.735,3.735,0,0,0,24.087,9.662Zm-6.708,25.86,1.863-8.186,3.913,3.721V42.22h3.727V28.267l-3.913-3.721,1.118-5.581a13.653,13.653,0,0,0,10.248,4.651V19.894a9.169,9.169,0,0,1-8.012-4.465l-1.863-2.977a3.844,3.844,0,0,0-3.168-1.86c-.559,0-.932.186-1.491.186l-9.689,4.093v8.744h3.727V17.29l3.354-1.3-2.981,15.07L5.08,29.2l-.745,3.721,13.043,2.6Z" transform="translate(-3.746 -1.72)" fill="#fff" stroke="#fff" stroke-width="1"/>
</svg>
