<svg xmlns="http://www.w3.org/2000/svg" width="60" height="55" viewBox="0 0 60 55">
  <path id="Icon_awesome-server" data-name="Icon awesome-server" d="M56.25,17.964H3.75A3.842,3.842,0,0,1,0,14.036V6.179A3.842,3.842,0,0,1,3.75,2.25h52.5A3.842,3.842,0,0,1,60,6.179v7.857A3.842,3.842,0,0,1,56.25,17.964Zm-5.625-10.8a2.882,2.882,0,0,0-2.812,2.946,2.816,2.816,0,1,0,5.625,0A2.882,2.882,0,0,0,50.625,7.161Zm-7.5,0a2.882,2.882,0,0,0-2.812,2.946,2.816,2.816,0,1,0,5.625,0A2.882,2.882,0,0,0,43.125,7.161ZM56.25,37.607H3.75A3.842,3.842,0,0,1,0,33.679V25.821a3.842,3.842,0,0,1,3.75-3.929h52.5A3.842,3.842,0,0,1,60,25.821v7.857A3.842,3.842,0,0,1,56.25,37.607ZM50.625,26.8a2.95,2.95,0,1,0,2.813,2.946A2.882,2.882,0,0,0,50.625,26.8Zm-7.5,0a2.95,2.95,0,1,0,2.813,2.946A2.882,2.882,0,0,0,43.125,26.8ZM56.25,57.25H3.75A3.842,3.842,0,0,1,0,53.321V45.464a3.842,3.842,0,0,1,3.75-3.929h52.5A3.842,3.842,0,0,1,60,45.464v7.857A3.842,3.842,0,0,1,56.25,57.25Zm-5.625-10.8a2.95,2.95,0,1,0,2.813,2.946A2.882,2.882,0,0,0,50.625,46.446Zm-7.5,0a2.95,2.95,0,1,0,2.813,2.946A2.882,2.882,0,0,0,43.125,46.446Z" transform="translate(0 -2.25)"/>
</svg>
